<svg width="504" height="504" viewBox="0 0 504 504" fill="none" xmlns="http://www.w3.org/2000/svg">
<rect x="380" y="250.015" width="74.9741" height="74.9741" rx="22" transform="rotate(-45 380 250.015)" fill="#10727D"/>
<rect x="18" y="252.015" width="74.9741" height="74.9741" rx="22" transform="rotate(-45 18 252.015)" fill="#10727D"/>
<path d="M300.152 31.7395L335.358 92.7183L294.09 164.197L211.553 164.197L170.285 92.7183L205.491 31.7395C209.242 25.242 216.175 21.2395 223.677 21.2395L281.965 21.2395C289.468 21.2395 296.401 25.242 300.152 31.7395Z" fill="white" stroke="#10727D" stroke-width="30"/>
<path d="M299.152 350.739L334.358 411.718L299.152 472.697C295.401 479.194 288.468 483.197 280.965 483.197L222.677 483.197C215.175 483.197 208.242 479.194 204.491 472.697L169.285 411.718L204.491 350.739C208.242 344.242 215.175 340.239 222.677 340.239L280.965 340.239C288.468 340.239 295.401 344.242 299.152 350.739Z" fill="white" stroke="#10727D" stroke-width="30"/>
<circle cx="252" cy="252" r="184" fill="white" stroke="#10727D" stroke-width="30"/>
<circle cx="252.5" cy="253.5" r="21.5" fill="#10727D" stroke="#10727D" stroke-width="20"/>
</svg>
