<svg width="589" height="589" viewBox="0 0 589 589" fill="none" xmlns="http://www.w3.org/2000/svg">
<rect width="84.1413" height="84.1413" rx="22" transform="matrix(0.707284 -0.70693 0.707284 0.70693 437.609 292.028)" fill="black"/>
<rect width="84.1413" height="84.1413" rx="22" transform="matrix(0.707284 -0.70693 0.707284 0.70693 31.2451 294.272)" fill="black"/>
<path d="M241.398 44.0054C245.149 37.5114 252.081 33.5113 259.583 33.5113L330.104 33.5113C337.609 33.5113 344.544 37.514 348.297 44.0113L389.615 115.54L342.229 197.574L247.457 197.574L200.074 115.545L241.398 44.0054Z" fill="white" stroke="black" stroke-width="30"/>
<path d="M240.275 401.92C244.027 395.426 250.959 391.426 258.461 391.426L328.981 391.426C336.486 391.426 343.422 395.429 347.175 401.926L388.492 473.454L347.168 544.994C343.417 551.488 336.485 555.488 328.983 555.488L258.462 555.488C250.957 555.488 244.022 551.486 240.269 544.988L198.951 473.46L240.275 401.92Z" fill="white" stroke="black" stroke-width="30"/>
<path d="M502.31 294.255C502.31 409.276 409.019 502.531 293.922 502.531C178.826 502.531 85.5344 409.276 85.5344 294.255C85.5344 179.234 178.826 85.979 293.922 85.979C409.019 85.979 502.31 179.234 502.31 294.255Z" fill="white" stroke="black" stroke-width="30"/>
<path d="M319.844 295.938C319.844 309.93 308.494 321.281 294.483 321.281C280.473 321.281 269.123 309.93 269.123 295.938C269.123 281.946 280.473 270.595 294.483 270.595C308.494 270.595 319.844 281.946 319.844 295.938Z" fill="black" stroke="black" stroke-width="20"/>
</svg>
